<!--?xml version="1.0" standalone="no"?-->

<svg version="1.0" xmlns="http://www.w3.org/2000/svg" width="100%" height="100%" viewBox="0 0 1180.000000 835.000000" preserveAspectRatio="xMidYMid meet">

<g transform="translate(0.000000,835.000000) scale(0.100000,-0.100000)" fill="#000000" stroke="none">
<path d="M5635 8215 c-208 -36 -298 -47 -450 -54 -207 -10 -304 -30 -522 -105
-245 -86 -352 -153 -667 -421 -372 -316 -411 -354 -553 -553 -271 -379 -396
-783 -472 -1531 -33 -322 -46 -644 -33 -822 18 -236 47 -351 129 -514 51 -103
63 -120 73 -106 3 6 25 -21 49 -59 25 -39 48 -70 52 -70 5 0 -4 35 -20 78 -35
94 -63 215 -92 387 -17 104 -21 170 -21 325 1 266 22 560 41 560 4 0 25 -62
46 -137 l39 -138 7 -275 c4 -151 11 -313 17 -360 5 -47 9 -94 10 -105 0 -11
14 -124 31 -251 16 -127 40 -345 51 -485 33 -400 73 -644 161 -989 38 -150 49
-181 58 -175 27 16 20 210 -20 651 -13 132 -19 249 -15 260 6 15 14 6 44 -51
44 -84 144 -230 205 -302 l44 -52 -23 -82 c-52 -179 -81 -457 -64 -609 22
-197 58 -286 159 -391 99 -103 104 -98 65 74 -18 78 -33 150 -34 159 -1 41
277 52 380 15 56 -20 63 -15 116 91 l39 77 45 1 c106 1 164 66 158 176 l-3 61
40 12 c64 19 182 83 224 120 l39 35 41 -147 c51 -182 65 -262 57 -331 -16
-135 -97 -192 -273 -192 -49 0 -83 -4 -83 -10 0 -16 139 -12 205 5 119 32 165
97 165 236 0 96 -16 171 -90 413 -28 92 -50 169 -48 170 2 1 32 10 68 20 109
29 518 185 646 246 66 31 184 94 262 138 79 45 144 82 147 82 6 0 -73 -162
-124 -255 -24 -44 -95 -157 -157 -250 -63 -94 -114 -176 -114 -183 0 -28 31
-7 116 80 116 119 170 184 270 333 97 144 163 254 238 395 30 58 59 104 63
102 4 -2 23 9 41 23 18 15 35 25 37 23 2 -2 -30 -55 -72 -118 -173 -262 -208
-400 -156 -610 35 -141 220 -584 282 -673 43 -63 173 -155 204 -144 7 2 -10
15 -38 30 -27 14 -58 32 -69 39 -17 14 -17 15 12 27 17 7 37 20 43 28 7 7 26
23 42 35 l30 21 -7 -38 -7 -38 45 5 c55 7 198 73 269 126 28 20 48 30 45 22
-19 -51 -49 -196 -46 -227 l3 -38 27 59 c47 99 95 170 174 257 42 48 89 112
107 149 28 56 32 74 31 140 -1 41 -7 123 -14 181 -14 118 -5 190 31 240 19 27
25 29 84 29 80 0 260 23 485 62 96 16 230 36 298 43 131 15 148 19 199 42 71
33 99 131 82 283 -6 52 -14 302 -19 555 -7 394 -12 507 -39 790 -58 616 -108
965 -181 1261 -147 597 -358 1000 -727 1385 -248 259 -468 411 -853 590 -319
148 -427 178 -660 185 -137 4 -160 1 -405 -41z m-387 -1712 c64 -142 176 -355
259 -492 24 -40 42 -75 40 -77 -2 -2 -67 12 -145 31 -78 19 -148 35 -157 35
-22 0 -31 27 -44 130 -14 119 -41 471 -40 525 0 38 1 39 11 15 6 -14 40 -89
76 -167z m-1009 -208 c80 -260 225 -504 495 -835 60 -74 111 -137 113 -139 2
-2 6 -1 9 2 4 4 -14 69 -39 144 -26 77 -39 127 -29 114 34 -49 220 -276 241
-295 32 -29 36 -12 11 51 -34 89 -100 286 -96 290 1 2 25 -25 51 -59 27 -34
89 -103 138 -154 l89 -93 -29 -7 c-33 -8 -109 -49 -119 -66 -5 -7 1 -9 20 -6
14 3 26 1 26 -3 0 -19 19 -8 22 13 2 16 15 27 47 39 l45 16 58 -45 c32 -25 60
-43 63 -40 3 3 -5 30 -19 61 -13 30 -22 58 -18 61 3 3 24 6 46 7 23 0 50 5 61
10 14 6 -2 8 -51 4 l-72 -5 -42 98 c-63 145 -64 144 32 33 16 -18 31 -31 33
-29 3 2 -13 83 -34 179 -21 96 -41 188 -44 206 l-6 32 39 -14 c55 -19 213 -52
292 -60 l67 -6 86 -121 c206 -285 405 -488 673 -686 74 -55 112 -74 112 -56 0
3 -38 74 -84 157 -95 172 -345 672 -321 642 43 -54 442 -608 452 -628 10 -19
10 -57 -2 -188 -46 -501 -131 -813 -370 -1364 -103 -236 -107 -245 -115 -245
-4 0 -79 -41 -166 -91 -222 -126 -304 -164 -595 -273 -310 -116 -404 -141
-509 -132 -264 20 -530 181 -855 517 -231 239 -310 363 -366 574 -44 167 -50
333 -20 493 33 171 36 226 17 317 -39 185 -87 455 -92 520 l-6 70 59 -104 c32
-58 63 -106 68 -108 6 -2 9 70 7 195 l-4 198 119 25 c65 14 124 28 131 30 8 3
27 -29 52 -89 57 -139 66 -140 45 -2 -18 115 -18 140 -4 140 6 0 33 16 59 35
l48 35 28 -47 c87 -151 187 -263 234 -263 15 0 11 14 -24 83 -23 45 -58 134
-79 198 l-38 115 80 129 c45 71 79 131 76 134 -3 2 -18 -7 -33 -21 -44 -41
-142 -111 -148 -106 -11 12 -24 130 -24 223 0 113 13 212 37 299 19 69 14 76
72 -109z m-555 -87 c28 -166 77 -356 120 -472 30 -80 30 -76 13 -76 -8 0 -55
-18 -106 -40 -50 -22 -94 -40 -98 -40 -7 0 6 445 18 600 9 123 19 194 24 188
2 -2 15 -74 29 -160z m255 -226 c12 -46 32 -111 45 -146 l23 -64 -44 -21 c-32
-16 -45 -18 -48 -9 -9 24 -35 311 -40 432 l-5 121 24 -115 c13 -63 34 -152 45
-198z m2935 -1044 c9 -58 16 -164 16 -236 l0 -130 50 -11 c28 -6 55 -11 59
-11 5 0 44 35 87 78 84 82 172 137 240 148 39 6 41 5 57 -33 54 -122 81 -266
75 -396 -9 -174 -57 -276 -198 -418 -88 -89 -198 -149 -320 -175 -96 -21 -331
-25 -338 -6 -2 7 -21 -10 -42 -40 -22 -29 -56 -67 -77 -83 -21 -17 -59 -48
-85 -69 l-47 -38 60 138 c265 603 428 1123 429 1365 1 79 16 43 34 -83z m1490
-363 c33 -343 29 -612 -17 -1120 l-12 -129 -90 -29 c-49 -15 -131 -39 -182
-52 -98 -26 -407 -75 -469 -75 l-37 0 69 73 c107 112 196 228 315 406 240 361
308 564 354 1051 8 91 18 176 22 190 8 31 26 -86 47 -315z m-3411 -1877 c4
-12 4 -24 2 -26 -2 -2 -37 0 -77 5 l-73 9 60 16 c80 21 82 21 88 -4z m1614
-328 c103 -72 99 -58 57 -171 -14 -37 -33 -74 -43 -83 -17 -16 -20 -14 -54 23
-20 22 -48 63 -62 90 -22 44 -165 369 -165 375 0 2 39 -36 88 -83 48 -47 129
-115 179 -151z m-1961 -45 c-5 -13 -66 -27 -66 -15 0 4 15 33 33 66 l32 59 3
-49 c2 -27 1 -54 -2 -61z" class="svg-elem-1"></path>
<path d="M5510 5211 c-86 -27 -155 -82 -292 -234 -80 -89 -94 -117 -41 -79
118 83 289 136 438 135 99 -1 151 -12 432 -90 l62 -17 20 25 c58 68 103 130
99 135 -3 2 -27 -5 -53 -16 l-48 -20 -83 42 c-80 41 -84 44 -78 71 7 33 -4 34
-40 6 l-28 -22 -86 27 c-146 44 -240 55 -302 37z" class="svg-elem-2"></path>
<path d="M4098 5203 c-70 -8 -39 -20 70 -26 59 -4 122 -11 141 -17 37 -10 55
-5 31 11 -38 24 -167 41 -242 32z" class="svg-elem-3"></path>
<path d="M3904 5002 c-28 -10 -74 -35 -102 -55 -50 -37 -52 -38 -82 -22 -27
14 -30 14 -30 0 0 -9 5 -26 11 -37 9 -17 6 -25 -22 -54 -26 -27 -41 -34 -71
-34 -46 0 -48 -10 -7 -34 17 -10 37 -34 45 -52 8 -19 19 -34 24 -34 5 0 54 27
109 59 161 95 194 106 341 105 69 -1 144 -6 168 -11 59 -15 55 3 -14 67 -118
107 -253 144 -370 102z" class="svg-elem-4"></path>
<path d="M5141 4045 c-50 -42 -73 -55 -110 -60 -55 -7 -55 -8 -190 -99 l-102
-70 -147 12 c-142 11 -263 37 -323 68 -26 13 -30 13 -36 -1 -12 -33 6 -129 37
-191 35 -71 83 -112 170 -145 70 -26 179 -44 192 -31 5 5 -15 11 -56 15 -36 3
-91 17 -123 29 l-58 23 0 108 c1 59 5 111 11 117 7 7 33 7 80 0 38 -5 115 -10
171 -10 l103 0 109 74 c83 56 124 77 167 86 44 9 69 23 120 66 l64 55 20 -33
c58 -95 64 -205 15 -303 -48 -98 -150 -165 -299 -193 -47 -10 -86 -20 -86 -24
0 -11 8 -10 92 7 152 32 260 105 309 209 40 84 45 146 20 227 -22 68 -53 119
-74 119 -7 -1 -41 -25 -76 -55z" class="svg-elem-5"></path>
<path d="M8230 2122 c0 -10 -9 -27 -20 -37 -29 -27 -25 -34 19 -28 33 5 40 2
46 -16 6 -19 14 -21 76 -21 38 0 69 -3 69 -7 -1 -5 -14 -24 -31 -43 l-29 -35
65 -12 c82 -15 105 -22 105 -33 0 -9 -118 -76 -400 -225 -616 -327 -683 -374
-808 -565 -116 -176 -163 -231 -316 -364 -260 -227 -474 -466 -508 -568 -6
-18 -16 -40 -23 -48 -7 -8 -27 -39 -44 -68 l-30 -52 1289 0 1290 0 0 193 c-1
259 -14 426 -45 555 l-26 108 25 100 c52 207 55 287 16 437 -38 143 -94 244
-204 366 -128 143 -255 241 -428 336 -77 41 -88 44 -88 27z m-693 -989 c-3
-10 -8 -40 -12 -68 -7 -54 -74 -365 -81 -377 -7 -11 -40 20 -94 88 -76 95 -77
102 -24 173 44 59 191 201 207 201 5 0 6 -8 4 -17z m-147 -921 c-21 -119 -41
-202 -49 -202 -4 0 3 51 16 113 12 61 22 124 23 138 0 28 12 47 18 29 2 -6 -1
-41 -8 -78z" class="svg-elem-6"></path>
<path d="M2887 1793 c-36 -35 78 -435 159 -560 12 -20 11 -34 -10 -120 -13
-54 -40 -192 -61 -308 -20 -116 -59 -293 -85 -395 -27 -102 -62 -236 -78 -298
l-30 -112 354 0 354 0 0 53 c1 53 21 164 34 185 4 7 13 12 21 12 8 0 64 16
125 36 l111 36 196 -68 195 -67 109 53 c60 30 109 57 109 60 0 4 -13 19 -29
34 l-30 29 -97 -63 c-53 -34 -104 -65 -114 -67 -16 -4 -285 82 -302 96 -13 12
19 45 64 68 23 12 83 40 132 63 49 22 117 57 150 79 34 21 89 52 123 69 l61
31 78 -38 c91 -44 304 -183 363 -237 29 -26 40 -42 36 -55 -9 -27 23 -143 63
-231 l35 -78 633 0 634 0 0 31 c0 106 66 394 136 594 25 72 73 216 106 320 33
105 71 224 85 265 26 80 39 128 31 120 -3 -3 -54 -72 -114 -155 -207 -286
-348 -396 -625 -488 -86 -29 -294 -77 -334 -77 -6 0 -25 26 -44 58 -18 31 -77
121 -129 199 l-95 143 -151 89 c-211 124 -300 171 -322 171 -11 0 -33 -13 -48
-29 -27 -28 -30 -29 -52 -14 -28 18 -96 12 -206 -18 -66 -18 -74 -19 -110 -4
l-39 15 -127 -101 c-69 -55 -176 -139 -237 -185 -129 -98 -243 -199 -234 -208
4 -4 31 16 60 45 30 28 99 86 154 127 55 42 165 127 244 190 l144 115 51 -25
c56 -28 176 -115 176 -128 0 -4 -12 -15 -27 -25 -16 -10 -67 -58 -115 -108
l-86 -91 -15 37 c-20 46 -30 43 -91 -28 l-47 -55 -49 25 c-27 14 -59 25 -71
25 -29 0 -153 -73 -259 -154 -84 -63 -99 -67 -100 -23 0 11 9 26 21 36 l21 17
-25 13 c-16 9 -24 22 -24 39 0 38 -82 110 -134 118 -21 4 -39 9 -39 12 0 3 10
16 22 29 20 22 21 23 2 23 -10 0 -26 5 -34 10 -13 9 -10 14 15 36 32 27 32 27
-22 60 -17 11 -17 13 6 37 l23 26 -30 37 c-28 34 -30 39 -16 58 20 29 18 33
-21 47 -43 16 -44 27 -5 64 l30 28 -56 59 -57 59 27 28 27 29 -58 7 c-32 5
-61 8 -65 7 -15 -4 -8 10 28 53 l36 44 -52 26 c-29 15 -55 35 -57 46 -3 11
-17 22 -32 25 -47 10 -69 22 -75 42 -4 11 -17 23 -29 26 -30 8 -182 8 -190 -1z
m2123 -686 c85 -50 163 -98 174 -106 23 -20 168 -231 224 -327 31 -51 42 -81
42 -111 0 -49 -11 -55 -71 -42 -122 27 -134 34 -250 161 -60 67 -112 132 -115
145 -5 17 -17 26 -50 34 -43 11 -206 114 -231 147 -7 9 -13 31 -13 49 0 18 -5
33 -10 33 -7 0 -8 -13 -4 -36 8 -41 6 -41 -54 3 -32 24 -35 24 -77 10 -43 -14
-45 -13 -66 9 -12 13 -47 41 -76 61 -61 42 -60 43 44 67 84 19 126 20 154 5
19 -10 19 -11 -9 -47 -36 -45 -55 -82 -45 -82 5 0 17 14 26 30 10 17 43 57 73
90 l56 59 61 -30 c34 -17 132 -72 217 -122z m-248 -146 c147 -102 245 -182
293 -239 21 -25 29 -49 36 -105 21 -158 29 -189 93 -348 36 -91 66 -171 66
-178 0 -23 -103 43 -170 109 -70 69 -151 183 -221 315 -24 44 -50 86 -58 92
-28 22 -157 92 -183 98 -17 4 -37 27 -63 72 -21 37 -41 61 -43 55 -2 -6 4 -22
12 -34 9 -12 16 -28 16 -35 0 -6 -26 -39 -57 -73 -61 -67 -76 -70 -132 -31
-14 10 -55 33 -91 51 l-65 33 35 26 c19 14 87 76 151 138 109 105 177 152 221
153 9 0 81 -45 160 -99z m-590 -223 c104 -54 155 -86 146 -91 -7 -4 -74 -43
-148 -87 l-134 -79 -23 35 c-13 19 -27 34 -32 34 -4 0 -35 -17 -67 -38 -68
-44 -133 -115 -141 -153 -4 -23 -15 -29 -91 -52 -47 -15 -88 -24 -91 -22 -6 7
24 146 51 235 21 70 21 70 112 138 106 79 233 159 255 162 2 0 76 -37 163 -82z" class="svg-elem-7"></path>
<path d="M4420 1497 c0 -58 227 -283 256 -254 3 2 -14 16 -38 30 -56 32 -159
140 -187 195 -22 43 -31 52 -31 29z" class="svg-elem-8"></path>
<path d="M6495 1403 c-11 -8 -78 -44 -148 -79 -141 -71 -308 -135 -509 -194
-150 -44 -340 -110 -384 -133 -51 -28 -11 -18 114 28 67 25 192 66 278 91 86
25 214 67 285 94 122 46 372 170 385 191 10 17 0 18 -21 2z" class="svg-elem-9"></path>
<path d="M3551 81 c-11 -15 -25 -40 -31 -55 -9 -25 -8 -26 21 -26 17 0 63 15
103 34 39 19 82 38 96 41 23 7 21 3 -15 -34 -21 -22 -34 -41 -28 -41 6 0 26
17 46 39 l35 39 58 -22 c53 -19 81 -21 254 -21 163 -1 201 -4 232 -18 21 -9
43 -17 50 -17 24 0 -7 18 -69 40 -60 22 -68 22 -185 11 -140 -13 -210 -5 -315
34 -50 19 -85 25 -149 25 -80 0 -83 -1 -103 -29z" class="svg-elem-10"></path>
</g>
</svg>
